<mxfile host="app.diagrams.net" agent="Mozilla/5.0 (Macintosh; Intel Mac OS X 10_15_7) AppleWebKit/537.36 (KHTML, like Gecko) Chrome/131.0.0.0 Safari/537.36" version="24.7.10">
  <diagram name="페이지-1" id="rGjVYl4sL1ox4CQ99OlO">
    <mxGraphModel dx="2901" dy="1121" grid="1" gridSize="10" guides="1" tooltips="1" connect="1" arrows="1" fold="1" page="1" pageScale="1" pageWidth="827" pageHeight="1169" math="0" shadow="0">
      <root>
        <mxCell id="0" />
        <mxCell id="1" parent="0" />
        <mxCell id="MAJEZ90XkeM7kgui7ea2-65" value="" style="rounded=1;whiteSpace=wrap;html=1;fillColor=#f5f5f5;fontColor=#333333;strokeColor=#666666;" vertex="1" parent="1">
          <mxGeometry x="660" y="485" width="350" height="140" as="geometry" />
        </mxCell>
        <mxCell id="MAJEZ90XkeM7kgui7ea2-63" value="" style="rounded=1;whiteSpace=wrap;html=1;fillColor=#f5f5f5;fontColor=#333333;strokeColor=#666666;" vertex="1" parent="1">
          <mxGeometry x="660" y="280" width="350" height="140" as="geometry" />
        </mxCell>
        <mxCell id="MAJEZ90XkeM7kgui7ea2-42" value="" style="rounded=1;whiteSpace=wrap;html=1;fillColor=#f5f5f5;fontColor=#333333;strokeColor=#666666;" vertex="1" parent="1">
          <mxGeometry x="230" y="280" width="370" height="540" as="geometry" />
        </mxCell>
        <mxCell id="MAJEZ90XkeM7kgui7ea2-24" style="edgeStyle=orthogonalEdgeStyle;rounded=0;orthogonalLoop=1;jettySize=auto;html=1;entryX=0;entryY=0.367;entryDx=0;entryDy=0;entryPerimeter=0;" edge="1" parent="1" target="MAJEZ90XkeM7kgui7ea2-11">
          <mxGeometry relative="1" as="geometry">
            <mxPoint x="70" y="352" as="sourcePoint" />
            <mxPoint x="210" y="350.75" as="targetPoint" />
          </mxGeometry>
        </mxCell>
        <mxCell id="MAJEZ90XkeM7kgui7ea2-25" value="post /login" style="edgeLabel;html=1;align=center;verticalAlign=middle;resizable=0;points=[];" vertex="1" connectable="0" parent="MAJEZ90XkeM7kgui7ea2-24">
          <mxGeometry x="-0.0182" y="3" relative="1" as="geometry">
            <mxPoint y="-6" as="offset" />
          </mxGeometry>
        </mxCell>
        <mxCell id="MAJEZ90XkeM7kgui7ea2-1" value="" style="shape=actor;whiteSpace=wrap;html=1;fillColor=#f5f5f5;strokeColor=#666666;fontColor=#333333;" vertex="1" parent="1">
          <mxGeometry x="20" y="330" width="40" height="60" as="geometry" />
        </mxCell>
        <mxCell id="MAJEZ90XkeM7kgui7ea2-6" value="Authorization API(express)" style="text;html=1;align=center;verticalAlign=middle;whiteSpace=wrap;rounded=0;fontStyle=1" vertex="1" parent="1">
          <mxGeometry x="330" y="290" width="160" height="30" as="geometry" />
        </mxCell>
        <mxCell id="MAJEZ90XkeM7kgui7ea2-43" value="" style="edgeStyle=orthogonalEdgeStyle;rounded=0;orthogonalLoop=1;jettySize=auto;html=1;" edge="1" parent="1" source="MAJEZ90XkeM7kgui7ea2-9" target="MAJEZ90XkeM7kgui7ea2-10">
          <mxGeometry relative="1" as="geometry" />
        </mxCell>
        <mxCell id="MAJEZ90XkeM7kgui7ea2-9" value="Authorization Middleware" style="rounded=1;whiteSpace=wrap;html=1;fillColor=#e1d5e7;strokeColor=#9673a6;" vertex="1" parent="1">
          <mxGeometry x="250" y="525" width="140" height="60" as="geometry" />
        </mxCell>
        <mxCell id="MAJEZ90XkeM7kgui7ea2-44" value="" style="edgeStyle=orthogonalEdgeStyle;rounded=0;orthogonalLoop=1;jettySize=auto;html=1;entryX=0;entryY=0.5;entryDx=0;entryDy=0;" edge="1" parent="1" source="MAJEZ90XkeM7kgui7ea2-10" target="MAJEZ90XkeM7kgui7ea2-28">
          <mxGeometry relative="1" as="geometry">
            <mxPoint x="640" y="640" as="targetPoint" />
          </mxGeometry>
        </mxCell>
        <mxCell id="MAJEZ90XkeM7kgui7ea2-69" value="set bearer token" style="edgeLabel;html=1;align=center;verticalAlign=middle;resizable=0;points=[];labelBackgroundColor=none;" vertex="1" connectable="0" parent="MAJEZ90XkeM7kgui7ea2-44">
          <mxGeometry x="-0.2952" y="1" relative="1" as="geometry">
            <mxPoint x="13" y="-10" as="offset" />
          </mxGeometry>
        </mxCell>
        <mxCell id="MAJEZ90XkeM7kgui7ea2-10" value="Proxy Middleware" style="rounded=1;whiteSpace=wrap;html=1;fillColor=#fff2cc;strokeColor=#d6b656;" vertex="1" parent="1">
          <mxGeometry x="440" y="525" width="140" height="60" as="geometry" />
        </mxCell>
        <mxCell id="MAJEZ90XkeM7kgui7ea2-22" style="edgeStyle=orthogonalEdgeStyle;rounded=0;orthogonalLoop=1;jettySize=auto;html=1;exitX=1;exitY=0.25;exitDx=0;exitDy=0;entryX=-0.029;entryY=0.367;entryDx=0;entryDy=0;entryPerimeter=0;" edge="1" parent="1" target="MAJEZ90XkeM7kgui7ea2-17">
          <mxGeometry relative="1" as="geometry">
            <mxPoint x="390" y="350" as="sourcePoint" />
            <mxPoint x="530" y="350" as="targetPoint" />
          </mxGeometry>
        </mxCell>
        <mxCell id="MAJEZ90XkeM7kgui7ea2-23" value="sign in azure" style="edgeLabel;html=1;align=center;verticalAlign=middle;resizable=0;points=[];labelBackgroundColor=none;" vertex="1" connectable="0" parent="MAJEZ90XkeM7kgui7ea2-22">
          <mxGeometry x="0.2" y="2" relative="1" as="geometry">
            <mxPoint x="-14" y="-7" as="offset" />
          </mxGeometry>
        </mxCell>
        <mxCell id="MAJEZ90XkeM7kgui7ea2-26" style="edgeStyle=orthogonalEdgeStyle;rounded=0;orthogonalLoop=1;jettySize=auto;html=1;exitX=0;exitY=0.75;exitDx=0;exitDy=0;dashed=1;" edge="1" parent="1" source="MAJEZ90XkeM7kgui7ea2-11">
          <mxGeometry relative="1" as="geometry">
            <mxPoint x="70" y="375" as="targetPoint" />
          </mxGeometry>
        </mxCell>
        <mxCell id="MAJEZ90XkeM7kgui7ea2-27" value="set cookie token" style="edgeLabel;html=1;align=center;verticalAlign=middle;resizable=0;points=[];" vertex="1" connectable="0" parent="MAJEZ90XkeM7kgui7ea2-26">
          <mxGeometry x="0.3035" y="-2" relative="1" as="geometry">
            <mxPoint x="22" y="-7" as="offset" />
          </mxGeometry>
        </mxCell>
        <mxCell id="MAJEZ90XkeM7kgui7ea2-11" value="Login" style="rounded=1;whiteSpace=wrap;html=1;fillColor=#d5e8d4;strokeColor=#82b366;" vertex="1" parent="1">
          <mxGeometry x="250" y="330" width="140" height="60" as="geometry" />
        </mxCell>
        <mxCell id="MAJEZ90XkeM7kgui7ea2-16" value="Microsoft Azure" style="text;html=1;align=center;verticalAlign=middle;whiteSpace=wrap;rounded=0;fontStyle=1" vertex="1" parent="1">
          <mxGeometry x="755" y="290" width="160" height="30" as="geometry" />
        </mxCell>
        <mxCell id="MAJEZ90XkeM7kgui7ea2-19" style="edgeStyle=orthogonalEdgeStyle;rounded=0;orthogonalLoop=1;jettySize=auto;html=1;exitX=0;exitY=0.75;exitDx=0;exitDy=0;entryX=1;entryY=0.75;entryDx=0;entryDy=0;dashed=1;" edge="1" parent="1" source="MAJEZ90XkeM7kgui7ea2-17" target="MAJEZ90XkeM7kgui7ea2-11">
          <mxGeometry relative="1" as="geometry" />
        </mxCell>
        <mxCell id="MAJEZ90XkeM7kgui7ea2-20" value="response token" style="edgeLabel;html=1;align=center;verticalAlign=middle;resizable=0;points=[];labelBackgroundColor=none;" vertex="1" connectable="0" parent="MAJEZ90XkeM7kgui7ea2-19">
          <mxGeometry x="0.1714" y="4" relative="1" as="geometry">
            <mxPoint x="23" y="-13" as="offset" />
          </mxGeometry>
        </mxCell>
        <mxCell id="MAJEZ90XkeM7kgui7ea2-17" value="passport azure ad passport&lt;div&gt;create token&lt;/div&gt;" style="rounded=1;whiteSpace=wrap;html=1;fillColor=#d5e8d4;strokeColor=#82b366;" vertex="1" parent="1">
          <mxGeometry x="685" y="330" width="140" height="60" as="geometry" />
        </mxCell>
        <mxCell id="MAJEZ90XkeM7kgui7ea2-54" style="edgeStyle=orthogonalEdgeStyle;rounded=0;orthogonalLoop=1;jettySize=auto;html=1;exitX=0.5;exitY=1;exitDx=0;exitDy=0;entryX=0.5;entryY=1;entryDx=0;entryDy=0;dashed=1;" edge="1" parent="1" source="MAJEZ90XkeM7kgui7ea2-28" target="MAJEZ90XkeM7kgui7ea2-35">
          <mxGeometry relative="1" as="geometry">
            <mxPoint x="140" y="650" as="targetPoint" />
            <Array as="points">
              <mxPoint x="755" y="650" />
              <mxPoint x="40" y="650" />
            </Array>
          </mxGeometry>
        </mxCell>
        <mxCell id="MAJEZ90XkeM7kgui7ea2-55" value="response subscriptions data" style="edgeLabel;html=1;align=center;verticalAlign=middle;resizable=0;points=[];" vertex="1" connectable="0" parent="MAJEZ90XkeM7kgui7ea2-54">
          <mxGeometry x="-0.799" y="3" relative="1" as="geometry">
            <mxPoint x="-35" y="7" as="offset" />
          </mxGeometry>
        </mxCell>
        <mxCell id="MAJEZ90XkeM7kgui7ea2-28" value="/subscriptions" style="rounded=1;whiteSpace=wrap;html=1;fillColor=#dae8fc;strokeColor=#6c8ebf;" vertex="1" parent="1">
          <mxGeometry x="685" y="525" width="140" height="60" as="geometry" />
        </mxCell>
        <mxCell id="MAJEZ90XkeM7kgui7ea2-29" value="Core API(spring boot)" style="text;html=1;align=center;verticalAlign=middle;whiteSpace=wrap;rounded=0;fontStyle=1" vertex="1" parent="1">
          <mxGeometry x="675" y="490" width="160" height="30" as="geometry" />
        </mxCell>
        <mxCell id="MAJEZ90XkeM7kgui7ea2-30" style="rounded=0;orthogonalLoop=1;jettySize=auto;html=1;entryX=0;entryY=0.5;entryDx=0;entryDy=0;" edge="1" parent="1" target="MAJEZ90XkeM7kgui7ea2-9">
          <mxGeometry relative="1" as="geometry">
            <mxPoint x="70" y="390" as="sourcePoint" />
            <mxPoint x="250" y="560" as="targetPoint" />
          </mxGeometry>
        </mxCell>
        <mxCell id="MAJEZ90XkeM7kgui7ea2-31" value="get /portal-api/subscriptions" style="edgeLabel;html=1;align=center;verticalAlign=middle;resizable=0;points=[];" vertex="1" connectable="0" parent="MAJEZ90XkeM7kgui7ea2-30">
          <mxGeometry x="-0.0182" y="3" relative="1" as="geometry">
            <mxPoint y="-6" as="offset" />
          </mxGeometry>
        </mxCell>
        <mxCell id="MAJEZ90XkeM7kgui7ea2-35" value="authorized user" style="text;html=1;align=center;verticalAlign=middle;whiteSpace=wrap;rounded=0;" vertex="1" parent="1">
          <mxGeometry y="400" width="80" height="30" as="geometry" />
        </mxCell>
        <mxCell id="MAJEZ90XkeM7kgui7ea2-46" value="" style="shape=actor;whiteSpace=wrap;html=1;fillColor=#f5f5f5;strokeColor=#666666;fontColor=#333333;" vertex="1" parent="1">
          <mxGeometry x="10" y="730" width="40" height="60" as="geometry" />
        </mxCell>
        <mxCell id="MAJEZ90XkeM7kgui7ea2-47" value="unauthorized user" style="text;html=1;align=center;verticalAlign=middle;whiteSpace=wrap;rounded=0;" vertex="1" parent="1">
          <mxGeometry x="-10" y="800" width="80" height="30" as="geometry" />
        </mxCell>
        <mxCell id="MAJEZ90XkeM7kgui7ea2-48" style="rounded=0;orthogonalLoop=1;jettySize=auto;html=1;entryX=0;entryY=0.25;entryDx=0;entryDy=0;" edge="1" parent="1" target="MAJEZ90XkeM7kgui7ea2-52">
          <mxGeometry relative="1" as="geometry">
            <mxPoint x="60" y="745" as="sourcePoint" />
            <mxPoint x="220" y="747" as="targetPoint" />
          </mxGeometry>
        </mxCell>
        <mxCell id="MAJEZ90XkeM7kgui7ea2-49" value="get /portal-api/subscriptions" style="edgeLabel;html=1;align=center;verticalAlign=middle;resizable=0;points=[];" vertex="1" connectable="0" parent="MAJEZ90XkeM7kgui7ea2-48">
          <mxGeometry x="-0.0182" y="3" relative="1" as="geometry">
            <mxPoint y="-6" as="offset" />
          </mxGeometry>
        </mxCell>
        <mxCell id="MAJEZ90XkeM7kgui7ea2-50" style="rounded=0;orthogonalLoop=1;jettySize=auto;html=1;dashed=1;exitX=0;exitY=0.75;exitDx=0;exitDy=0;" edge="1" parent="1" source="MAJEZ90XkeM7kgui7ea2-52">
          <mxGeometry relative="1" as="geometry">
            <mxPoint x="60" y="775" as="targetPoint" />
            <mxPoint x="220" y="775" as="sourcePoint" />
          </mxGeometry>
        </mxCell>
        <mxCell id="MAJEZ90XkeM7kgui7ea2-51" value="response http code 403 error" style="edgeLabel;html=1;align=center;verticalAlign=middle;resizable=0;points=[];" vertex="1" connectable="0" parent="MAJEZ90XkeM7kgui7ea2-50">
          <mxGeometry x="0.3035" y="-2" relative="1" as="geometry">
            <mxPoint x="22" y="-7" as="offset" />
          </mxGeometry>
        </mxCell>
        <mxCell id="MAJEZ90XkeM7kgui7ea2-52" value="Authorization Middleware&lt;br&gt;set bearer token" style="rounded=1;whiteSpace=wrap;html=1;fillColor=#e1d5e7;strokeColor=#9673a6;" vertex="1" parent="1">
          <mxGeometry x="250" y="730" width="140" height="60" as="geometry" />
        </mxCell>
        <mxCell id="MAJEZ90XkeM7kgui7ea2-60" style="rounded=0;orthogonalLoop=1;jettySize=auto;html=1;exitX=0.75;exitY=1;exitDx=0;exitDy=0;entryX=1;entryY=0.5;entryDx=0;entryDy=0;dashed=1;edgeStyle=orthogonalEdgeStyle;" edge="1" parent="1" target="MAJEZ90XkeM7kgui7ea2-28">
          <mxGeometry relative="1" as="geometry">
            <mxPoint x="825" y="570" as="targetPoint" />
            <mxPoint x="915" y="390" as="sourcePoint" />
            <Array as="points">
              <mxPoint x="915" y="555" />
            </Array>
          </mxGeometry>
        </mxCell>
        <mxCell id="MAJEZ90XkeM7kgui7ea2-62" value="response subscriptions data" style="edgeLabel;html=1;align=center;verticalAlign=middle;resizable=0;points=[];labelBackgroundColor=none;" vertex="1" connectable="0" parent="MAJEZ90XkeM7kgui7ea2-60">
          <mxGeometry x="0.1843" y="-1" relative="1" as="geometry">
            <mxPoint x="1" y="19" as="offset" />
          </mxGeometry>
        </mxCell>
        <mxCell id="MAJEZ90XkeM7kgui7ea2-56" value="azure subscriptions api" style="rounded=1;whiteSpace=wrap;html=1;fillColor=#dae8fc;strokeColor=#6c8ebf;" vertex="1" parent="1">
          <mxGeometry x="845" y="330" width="140" height="60" as="geometry" />
        </mxCell>
        <mxCell id="MAJEZ90XkeM7kgui7ea2-59" style="rounded=0;orthogonalLoop=1;jettySize=auto;html=1;entryX=0.329;entryY=1.033;entryDx=0;entryDy=0;entryPerimeter=0;exitX=1;exitY=0;exitDx=0;exitDy=0;" edge="1" parent="1" source="MAJEZ90XkeM7kgui7ea2-28" target="MAJEZ90XkeM7kgui7ea2-56">
          <mxGeometry relative="1" as="geometry">
            <mxPoint x="835" y="540" as="sourcePoint" />
          </mxGeometry>
        </mxCell>
        <mxCell id="MAJEZ90XkeM7kgui7ea2-61" value="reqeust subscriptions api" style="edgeLabel;html=1;align=center;verticalAlign=middle;resizable=0;points=[];" vertex="1" connectable="0" parent="MAJEZ90XkeM7kgui7ea2-59">
          <mxGeometry x="-0.205" relative="1" as="geometry">
            <mxPoint as="offset" />
          </mxGeometry>
        </mxCell>
      </root>
    </mxGraphModel>
  </diagram>
</mxfile>
